<svg xmlns="http://www.w3.org/2000/svg" version="1.1" xmlns:xlink="http://www.w3.org/1999/xlink" xmlns:svgjs="http://svgjs.dev/svgjs" viewBox="0 0 800 800" opacity="1" width="800" height="800"><g stroke-width="0.5" stroke="hsla(261, 19%, 72%, 1.00)" fill="none"><rect width="61.53846153846154" height="66.66666666666667" x="0" y="0"></rect><rect width="61.53846153846154" height="66.66666666666667" x="61.53846153846154" y="0"></rect><rect width="61.53846153846154" height="66.66666666666667" x="123.07692307692308" y="0"></rect><rect width="61.53846153846154" height="66.66666666666667" x="184.6153846153846" y="0"></rect><rect width="61.53846153846154" height="66.66666666666667" x="246.15384615384616" y="0"></rect><rect width="61.53846153846154" height="66.66666666666667" x="307.6923076923077" y="0"></rect><rect width="61.53846153846154" height="66.66666666666667" x="369.2307692307692" y="0"></rect><rect width="61.53846153846154" height="66.66666666666667" x="430.7692307692308" y="0"></rect><rect width="61.53846153846154" height="66.66666666666667" x="492.3076923076923" y="0"></rect><rect width="61.53846153846154" height="66.66666666666667" x="553.8461538461538" y="0"></rect><rect width="61.53846153846154" height="66.66666666666667" x="615.3846153846154" y="0"></rect><rect width="61.53846153846154" height="66.66666666666667" x="676.9230769230769" y="0"></rect><rect width="61.53846153846154" height="66.66666666666667" x="738.4615384615385" y="0"></rect><rect width="61.53846153846154" height="66.66666666666667" x="800" y="0"></rect><rect width="61.53846153846154" height="66.66666666666667" x="0" y="66.66666666666667"></rect><rect width="61.53846153846154" height="66.66666666666667" x="61.53846153846154" y="66.66666666666667"></rect><rect width="61.53846153846154" height="66.66666666666667" x="123.07692307692308" y="66.66666666666667"></rect><rect width="61.53846153846154" height="66.66666666666667" x="184.6153846153846" y="66.66666666666667"></rect><rect width="61.53846153846154" height="66.66666666666667" x="246.15384615384616" y="66.66666666666667"></rect><rect width="61.53846153846154" height="66.66666666666667" x="307.6923076923077" y="66.66666666666667"></rect><rect width="61.53846153846154" height="66.66666666666667" x="369.2307692307692" y="66.66666666666667"></rect><rect width="61.53846153846154" height="66.66666666666667" x="430.7692307692308" y="66.66666666666667"></rect><rect width="61.53846153846154" height="66.66666666666667" x="492.3076923076923" y="66.66666666666667"></rect><rect width="61.53846153846154" height="66.66666666666667" x="553.8461538461538" y="66.66666666666667"></rect><rect width="61.53846153846154" height="66.66666666666667" x="615.3846153846154" y="66.66666666666667"></rect><rect width="61.53846153846154" height="66.66666666666667" x="676.9230769230769" y="66.66666666666667"></rect><rect width="61.53846153846154" height="66.66666666666667" x="738.4615384615385" y="66.66666666666667"></rect><rect width="61.53846153846154" height="66.66666666666667" x="800" y="66.66666666666667"></rect><rect width="61.53846153846154" height="66.66666666666667" x="0" y="133.33333333333334"></rect><rect width="61.53846153846154" height="66.66666666666667" x="61.53846153846154" y="133.33333333333334"></rect><rect width="61.53846153846154" height="66.66666666666667" x="123.07692307692308" y="133.33333333333334"></rect><rect width="61.53846153846154" height="66.66666666666667" x="184.6153846153846" y="133.33333333333334"></rect><rect width="61.53846153846154" height="66.66666666666667" x="246.15384615384616" y="133.33333333333334"></rect><rect width="61.53846153846154" height="66.66666666666667" x="307.6923076923077" y="133.33333333333334"></rect><rect width="61.53846153846154" height="66.66666666666667" x="369.2307692307692" y="133.33333333333334"></rect><rect width="61.53846153846154" height="66.66666666666667" x="430.7692307692308" y="133.33333333333334"></rect><rect width="61.53846153846154" height="66.66666666666667" x="492.3076923076923" y="133.33333333333334"></rect><rect width="61.53846153846154" height="66.66666666666667" x="553.8461538461538" y="133.33333333333334"></rect><rect width="61.53846153846154" height="66.66666666666667" x="615.3846153846154" y="133.33333333333334"></rect><rect width="61.53846153846154" height="66.66666666666667" x="676.9230769230769" y="133.33333333333334"></rect><rect width="61.53846153846154" height="66.66666666666667" x="738.4615384615385" y="133.33333333333334"></rect><rect width="61.53846153846154" height="66.66666666666667" x="800" y="133.33333333333334"></rect><rect width="61.53846153846154" height="66.66666666666667" x="0" y="200"></rect><rect width="61.53846153846154" height="66.66666666666667" x="61.53846153846154" y="200"></rect><rect width="61.53846153846154" height="66.66666666666667" x="123.07692307692308" y="200"></rect><rect width="61.53846153846154" height="66.66666666666667" x="184.6153846153846" y="200"></rect><rect width="61.53846153846154" height="66.66666666666667" x="246.15384615384616" y="200"></rect><rect width="61.53846153846154" height="66.66666666666667" x="307.6923076923077" y="200"></rect><rect width="61.53846153846154" height="66.66666666666667" x="369.2307692307692" y="200"></rect><rect width="61.53846153846154" height="66.66666666666667" x="430.7692307692308" y="200"></rect><rect width="61.53846153846154" height="66.66666666666667" x="492.3076923076923" y="200"></rect><rect width="61.53846153846154" height="66.66666666666667" x="553.8461538461538" y="200"></rect><rect width="61.53846153846154" height="66.66666666666667" x="615.3846153846154" y="200"></rect><rect width="61.53846153846154" height="66.66666666666667" x="676.9230769230769" y="200"></rect><rect width="61.53846153846154" height="66.66666666666667" x="738.4615384615385" y="200"></rect><rect width="61.53846153846154" height="66.66666666666667" x="800" y="200"></rect><rect width="61.53846153846154" height="66.66666666666667" x="0" y="266.6666666666667"></rect><rect width="61.53846153846154" height="66.66666666666667" x="61.53846153846154" y="266.6666666666667"></rect><rect width="61.53846153846154" height="66.66666666666667" x="123.07692307692308" y="266.6666666666667"></rect><rect width="61.53846153846154" height="66.66666666666667" x="184.6153846153846" y="266.6666666666667"></rect><rect width="61.53846153846154" height="66.66666666666667" x="246.15384615384616" y="266.6666666666667"></rect><rect width="61.53846153846154" height="66.66666666666667" x="307.6923076923077" y="266.6666666666667"></rect><rect width="61.53846153846154" height="66.66666666666667" x="369.2307692307692" y="266.6666666666667"></rect><rect width="61.53846153846154" height="66.66666666666667" x="430.7692307692308" y="266.6666666666667"></rect><rect width="61.53846153846154" height="66.66666666666667" x="492.3076923076923" y="266.6666666666667"></rect><rect width="61.53846153846154" height="66.66666666666667" x="553.8461538461538" y="266.6666666666667"></rect><rect width="61.53846153846154" height="66.66666666666667" x="615.3846153846154" y="266.6666666666667"></rect><rect width="61.53846153846154" height="66.66666666666667" x="676.9230769230769" y="266.6666666666667"></rect><rect width="61.53846153846154" height="66.66666666666667" x="738.4615384615385" y="266.6666666666667"></rect><rect width="61.53846153846154" height="66.66666666666667" x="800" y="266.6666666666667"></rect><rect width="61.53846153846154" height="66.66666666666667" x="0" y="333.33333333333337"></rect><rect width="61.53846153846154" height="66.66666666666667" x="61.53846153846154" y="333.33333333333337"></rect><rect width="61.53846153846154" height="66.66666666666667" x="123.07692307692308" y="333.33333333333337"></rect><rect width="61.53846153846154" height="66.66666666666667" x="184.6153846153846" y="333.33333333333337"></rect><rect width="61.53846153846154" height="66.66666666666667" x="246.15384615384616" y="333.33333333333337"></rect><rect width="61.53846153846154" height="66.66666666666667" x="307.6923076923077" y="333.33333333333337"></rect><rect width="61.53846153846154" height="66.66666666666667" x="369.2307692307692" y="333.33333333333337"></rect><rect width="61.53846153846154" height="66.66666666666667" x="430.7692307692308" y="333.33333333333337"></rect><rect width="61.53846153846154" height="66.66666666666667" x="492.3076923076923" y="333.33333333333337"></rect><rect width="61.53846153846154" height="66.66666666666667" x="553.8461538461538" y="333.33333333333337"></rect><rect width="61.53846153846154" height="66.66666666666667" x="615.3846153846154" y="333.33333333333337"></rect><rect width="61.53846153846154" height="66.66666666666667" x="676.9230769230769" y="333.33333333333337"></rect><rect width="61.53846153846154" height="66.66666666666667" x="738.4615384615385" y="333.33333333333337"></rect><rect width="61.53846153846154" height="66.66666666666667" x="800" y="333.33333333333337"></rect><rect width="61.53846153846154" height="66.66666666666667" x="0" y="400.00000000000006"></rect><rect width="61.53846153846154" height="66.66666666666667" x="61.53846153846154" y="400.00000000000006"></rect><rect width="61.53846153846154" height="66.66666666666667" x="123.07692307692308" y="400.00000000000006"></rect><rect width="61.53846153846154" height="66.66666666666667" x="184.6153846153846" y="400.00000000000006"></rect><rect width="61.53846153846154" height="66.66666666666667" x="246.15384615384616" y="400.00000000000006"></rect><rect width="61.53846153846154" height="66.66666666666667" x="307.6923076923077" y="400.00000000000006"></rect><rect width="61.53846153846154" height="66.66666666666667" x="369.2307692307692" y="400.00000000000006"></rect><rect width="61.53846153846154" height="66.66666666666667" x="430.7692307692308" y="400.00000000000006"></rect><rect width="61.53846153846154" height="66.66666666666667" x="492.3076923076923" y="400.00000000000006"></rect><rect width="61.53846153846154" height="66.66666666666667" x="553.8461538461538" y="400.00000000000006"></rect><rect width="61.53846153846154" height="66.66666666666667" x="615.3846153846154" y="400.00000000000006"></rect><rect width="61.53846153846154" height="66.66666666666667" x="676.9230769230769" y="400.00000000000006"></rect><rect width="61.53846153846154" height="66.66666666666667" x="738.4615384615385" y="400.00000000000006"></rect><rect width="61.53846153846154" height="66.66666666666667" x="800" y="400.00000000000006"></rect><rect width="61.53846153846154" height="66.66666666666667" x="0" y="466.66666666666674"></rect><rect width="61.53846153846154" height="66.66666666666667" x="61.53846153846154" y="466.66666666666674"></rect><rect width="61.53846153846154" height="66.66666666666667" x="123.07692307692308" y="466.66666666666674"></rect><rect width="61.53846153846154" height="66.66666666666667" x="184.6153846153846" y="466.66666666666674"></rect><rect width="61.53846153846154" height="66.66666666666667" x="246.15384615384616" y="466.66666666666674"></rect><rect width="61.53846153846154" height="66.66666666666667" x="307.6923076923077" y="466.66666666666674"></rect><rect width="61.53846153846154" height="66.66666666666667" x="369.2307692307692" y="466.66666666666674"></rect><rect width="61.53846153846154" height="66.66666666666667" x="430.7692307692308" y="466.66666666666674"></rect><rect width="61.53846153846154" height="66.66666666666667" x="492.3076923076923" y="466.66666666666674"></rect><rect width="61.53846153846154" height="66.66666666666667" x="553.8461538461538" y="466.66666666666674"></rect><rect width="61.53846153846154" height="66.66666666666667" x="615.3846153846154" y="466.66666666666674"></rect><rect width="61.53846153846154" height="66.66666666666667" x="676.9230769230769" y="466.66666666666674"></rect><rect width="61.53846153846154" height="66.66666666666667" x="738.4615384615385" y="466.66666666666674"></rect><rect width="61.53846153846154" height="66.66666666666667" x="800" y="466.66666666666674"></rect><rect width="61.53846153846154" height="66.66666666666667" x="0" y="533.3333333333334"></rect><rect width="61.53846153846154" height="66.66666666666667" x="61.53846153846154" y="533.3333333333334"></rect><rect width="61.53846153846154" height="66.66666666666667" x="123.07692307692308" y="533.3333333333334"></rect><rect width="61.53846153846154" height="66.66666666666667" x="184.6153846153846" y="533.3333333333334"></rect><rect width="61.53846153846154" height="66.66666666666667" x="246.15384615384616" y="533.3333333333334"></rect><rect width="61.53846153846154" height="66.66666666666667" x="307.6923076923077" y="533.3333333333334"></rect><rect width="61.53846153846154" height="66.66666666666667" x="369.2307692307692" y="533.3333333333334"></rect><rect width="61.53846153846154" height="66.66666666666667" x="430.7692307692308" y="533.3333333333334"></rect><rect width="61.53846153846154" height="66.66666666666667" x="492.3076923076923" y="533.3333333333334"></rect><rect width="61.53846153846154" height="66.66666666666667" x="553.8461538461538" y="533.3333333333334"></rect><rect width="61.53846153846154" height="66.66666666666667" x="615.3846153846154" y="533.3333333333334"></rect><rect width="61.53846153846154" height="66.66666666666667" x="676.9230769230769" y="533.3333333333334"></rect><rect width="61.53846153846154" height="66.66666666666667" x="738.4615384615385" y="533.3333333333334"></rect><rect width="61.53846153846154" height="66.66666666666667" x="800" y="533.3333333333334"></rect><rect width="61.53846153846154" height="66.66666666666667" x="0" y="600"></rect><rect width="61.53846153846154" height="66.66666666666667" x="61.53846153846154" y="600"></rect><rect width="61.53846153846154" height="66.66666666666667" x="123.07692307692308" y="600"></rect><rect width="61.53846153846154" height="66.66666666666667" x="184.6153846153846" y="600"></rect><rect width="61.53846153846154" height="66.66666666666667" x="246.15384615384616" y="600"></rect><rect width="61.53846153846154" height="66.66666666666667" x="307.6923076923077" y="600"></rect><rect width="61.53846153846154" height="66.66666666666667" x="369.2307692307692" y="600"></rect><rect width="61.53846153846154" height="66.66666666666667" x="430.7692307692308" y="600"></rect><rect width="61.53846153846154" height="66.66666666666667" x="492.3076923076923" y="600"></rect><rect width="61.53846153846154" height="66.66666666666667" x="553.8461538461538" y="600"></rect><rect width="61.53846153846154" height="66.66666666666667" x="615.3846153846154" y="600"></rect><rect width="61.53846153846154" height="66.66666666666667" x="676.9230769230769" y="600"></rect><rect width="61.53846153846154" height="66.66666666666667" x="738.4615384615385" y="600"></rect><rect width="61.53846153846154" height="66.66666666666667" x="800" y="600"></rect><rect width="61.53846153846154" height="66.66666666666667" x="0" y="666.6666666666666"></rect><rect width="61.53846153846154" height="66.66666666666667" x="61.53846153846154" y="666.6666666666666"></rect><rect width="61.53846153846154" height="66.66666666666667" x="123.07692307692308" y="666.6666666666666"></rect><rect width="61.53846153846154" height="66.66666666666667" x="184.6153846153846" y="666.6666666666666"></rect><rect width="61.53846153846154" height="66.66666666666667" x="246.15384615384616" y="666.6666666666666"></rect><rect width="61.53846153846154" height="66.66666666666667" x="307.6923076923077" y="666.6666666666666"></rect><rect width="61.53846153846154" height="66.66666666666667" x="369.2307692307692" y="666.6666666666666"></rect><rect width="61.53846153846154" height="66.66666666666667" x="430.7692307692308" y="666.6666666666666"></rect><rect width="61.53846153846154" height="66.66666666666667" x="492.3076923076923" y="666.6666666666666"></rect><rect width="61.53846153846154" height="66.66666666666667" x="553.8461538461538" y="666.6666666666666"></rect><rect width="61.53846153846154" height="66.66666666666667" x="615.3846153846154" y="666.6666666666666"></rect><rect width="61.53846153846154" height="66.66666666666667" x="676.9230769230769" y="666.6666666666666"></rect><rect width="61.53846153846154" height="66.66666666666667" x="738.4615384615385" y="666.6666666666666"></rect><rect width="61.53846153846154" height="66.66666666666667" x="800" y="666.6666666666666"></rect><rect width="61.53846153846154" height="66.66666666666667" x="0" y="733.3333333333333"></rect><rect width="61.53846153846154" height="66.66666666666667" x="61.53846153846154" y="733.3333333333333"></rect><rect width="61.53846153846154" height="66.66666666666667" x="123.07692307692308" y="733.3333333333333"></rect><rect width="61.53846153846154" height="66.66666666666667" x="184.6153846153846" y="733.3333333333333"></rect><rect width="61.53846153846154" height="66.66666666666667" x="246.15384615384616" y="733.3333333333333"></rect><rect width="61.53846153846154" height="66.66666666666667" x="307.6923076923077" y="733.3333333333333"></rect><rect width="61.53846153846154" height="66.66666666666667" x="369.2307692307692" y="733.3333333333333"></rect><rect width="61.53846153846154" height="66.66666666666667" x="430.7692307692308" y="733.3333333333333"></rect><rect width="61.53846153846154" height="66.66666666666667" x="492.3076923076923" y="733.3333333333333"></rect><rect width="61.53846153846154" height="66.66666666666667" x="553.8461538461538" y="733.3333333333333"></rect><rect width="61.53846153846154" height="66.66666666666667" x="615.3846153846154" y="733.3333333333333"></rect><rect width="61.53846153846154" height="66.66666666666667" x="676.9230769230769" y="733.3333333333333"></rect><rect width="61.53846153846154" height="66.66666666666667" x="738.4615384615385" y="733.3333333333333"></rect><rect width="61.53846153846154" height="66.66666666666667" x="800" y="733.3333333333333"></rect><rect width="61.53846153846154" height="66.66666666666667" x="0" y="799.9999999999999"></rect><rect width="61.53846153846154" height="66.66666666666667" x="61.53846153846154" y="799.9999999999999"></rect><rect width="61.53846153846154" height="66.66666666666667" x="123.07692307692308" y="799.9999999999999"></rect><rect width="61.53846153846154" height="66.66666666666667" x="184.6153846153846" y="799.9999999999999"></rect><rect width="61.53846153846154" height="66.66666666666667" x="246.15384615384616" y="799.9999999999999"></rect><rect width="61.53846153846154" height="66.66666666666667" x="307.6923076923077" y="799.9999999999999"></rect><rect width="61.53846153846154" height="66.66666666666667" x="369.2307692307692" y="799.9999999999999"></rect><rect width="61.53846153846154" height="66.66666666666667" x="430.7692307692308" y="799.9999999999999"></rect><rect width="61.53846153846154" height="66.66666666666667" x="492.3076923076923" y="799.9999999999999"></rect><rect width="61.53846153846154" height="66.66666666666667" x="553.8461538461538" y="799.9999999999999"></rect><rect width="61.53846153846154" height="66.66666666666667" x="615.3846153846154" y="799.9999999999999"></rect><rect width="61.53846153846154" height="66.66666666666667" x="676.9230769230769" y="799.9999999999999"></rect><rect width="61.53846153846154" height="66.66666666666667" x="738.4615384615385" y="799.9999999999999"></rect><rect width="61.53846153846154" height="66.66666666666667" x="800" y="799.9999999999999"></rect></g></svg>